<?xml version="1.0" encoding="UTF-8"?>
<svg xmlns="http://www.w3.org/2000/svg" viewBox="0 0 516 604" width="516" height="604">
<path d="M488.94 567.25C489.85 568.46 491.2 569.46 491.74 570.97C496.47 583.97 482.36 584.44 473.76 586.04C472.03 586.36 470.39 587.46 468.65 587.8C463.53 588.82 457.47 587.87 452.25 587.92C447.88 587.95 442.91 588.95 438.65 589.8C436.4 590.25 434.02 589.62 431.76 590.04C427.05 590.91 422.38 592.86 417.65 593.8C410.14 595.3 397.76 593.92 389.75 593.92C384.57 593.92 378.43 594.85 373.35 593.8C365.58 592.2 363.07 583.45 360.88 577.33C360.2 575.45 358.64 572.77 357.65 571.07C356.81 569.62 355.13 568.99 354.4 567.34C353.11 564.44 352.92 561.56 350.69 559.05C345.33 553.04 338.39 550.94 331.01 548.72C329.4 548.24 328.24 546.69 326.67 546.12C319.18 543.44 311.44 541.46 303.97 538.74C302.51 538.21 301.42 536.88 300.01 536.27C294.74 533.99 290.22 532.64 286.37 527.89C283.96 524.91 283.13 521.81 281.88 518.33C279.39 511.41 273.92 505.26 267.01 502.27C262.55 500.34 255.45 497.54 250.75 496.99C241.86 495.94 232.64 497.99 223.77 496.85C220.71 496.45 213.78 495.56 211.01 494.72C209.4 494.24 208.24 492.69 206.67 492.12C204.59 491.38 202.22 491.16 200.39 489.83C198.65 488.56 197.84 486.33 196.56 484.67C195.6 483.42 194.09 482.88 193.17 481.61C192.36 480.49 189.47 474.97 189.2 473.65C188.91 472.24 189.25 470.73 188.88 469.33C187.94 465.83 186.26 462.49 185.28 458.99C184.29 455.48 184.52 448.35 181.94 445.33C179.77 442.79 174.65 436.93 171.93 435.35C170.69 434.62 169.31 434.58 168.11 433.63C165.24 431.35 163.17 427.77 160.5 425.26C157.54 422.47 153.98 420.1 151.37 416.89C148.2 412.97 139.87 401.47 138.26 397.03C137.35 394.55 136.95 391.77 135.84 389.37C135.05 387.66 132.96 386.96 132.26 385.03C131.33 382.48 131.62 379.86 130.87 377.33C129.79 373.71 126.37 370.63 125.28 366.99C124.83 365.5 125.28 363.83 124.88 362.33C123.27 356.32 121.62 350.66 122.12 344.25C122.44 340.15 125.18 336.75 123.87 332.33C123.44 330.87 122.02 329.73 121.4 328.34C117.76 320.17 112.32 313.28 108.73 304.99C107.69 302.59 105.47 300.74 104.4 298.34C103.65 296.65 103.47 294.69 102.73 292.99C100.34 287.47 96.41 282.72 95.2 276.65C94.33 272.31 95.49 267.63 94.82 263.25C91.42 262.24 89.19 259.65 86.01 258.27C84.31 257.53 82.35 257.35 80.66 256.6C77.5 255.19 75.96 252.86 73.74 250.5C72.77 249.46 71.29 249.02 70.37 247.89C66.62 243.27 64.85 236.61 63.28 230.99C62.42 227.93 63.38 224.39 63.01 221.25C62.79 219.36 61.46 214.19 60.74 212.48C60.08 210.91 58.37 210.15 57.37 208.89C56.42 207.69 56.38 206.31 55.65 205.07C54.48 203.05 51.83 201.72 50.37 199.89C49.38 198.64 49.33 197.37 48.73 195.99C45.76 189.14 40.35 184.4 38.28 176.99C37.42 173.93 38.38 170.39 38.01 167.25C37.44 162.32 36.78 157.15 36.15 152.23C35.91 150.36 36.47 148.26 35.74 146.48C34.34 143.06 33.2 139.38 31.73 135.99C29.32 130.43 23.87 123.59 20.65 118.07C19.52 116.12 16.75 115.62 15.37 113.89C14.75 113.1 11.28 103.5 11.16 102.23C10.54 95.87 18.42 87.17 23.11 83.37C25.87 81.14 29.18 79.63 29.97 75.74C30.81 71.69 30.73 57.88 29.96 53.76C29.64 52.03 28.54 50.39 28.2 48.65C27.78 46.56 28.26 44.36 28.01 42.25C27.24 35.69 25.9 28.47 28.26 21.97C29.12 19.59 31.45 19.31 32.72 17.49C33.6 16.25 33.64 14.72 34.86 13.6C37.92 10.8 43.92 12.12 47.75 12.08C49.63 12.07 51.01 11.38 52.77 11.15C55.74 10.77 58.78 11.36 61.75 11.01C65.94 10.52 69.89 10.08 74.25 10.08C83.66 10.08 93.05 9.93 102.25 11.01C105.22 11.36 108.26 10.77 111.23 11.15C113.14 11.4 114.89 12.62 116.76 12.96C120.82 13.72 125.14 12.62 129.23 13.15C133.6 13.71 138.33 14.98 142.75 15.07C154.07 15.29 165.42 15.08 176.75 15.08C181.79 15.08 187.7 14.21 192.65 15.2C200.92 16.85 216.97 20.13 222.63 27.11C231.09 37.55 227.92 54.18 227.92 66.75C227.92 70.85 228.61 75.62 227.8 79.65C226.85 84.42 224.91 88.96 224.04 93.76C222.77 100.73 224.75 108.21 223.85 115.23C222.29 127.31 222.94 139.93 222.94 152.25C222.94 159.24 221.76 167.37 223.04 174.24C224.5 182.14 229.58 194.46 235.26 200.5C236.32 201.63 237.89 202.09 238.83 203.39C239.84 204.79 239.47 206.19 240.16 207.63C240.68 208.74 242.05 209.42 242.6 210.66C244.86 215.74 247.61 220.22 250.35 224.93C251.97 227.72 263.2 237.98 266.07 239.65C267.31 240.38 268.69 240.42 269.89 241.37C273.88 244.54 276.91 248.67 281.17 251.56C283.38 253.06 285.86 253.64 288.12 255.15C289.58 256.13 290.85 258.14 292.37 258.84C293.5 259.36 294.55 259.41 295.61 260.17C298.1 261.98 299.96 264.42 302.99 265.73C304.97 266.59 306.55 267.98 308.37 268.84C309.81 269.53 311.21 269.16 312.61 270.17C313.76 271 314.52 272.26 315.62 273.16C320.18 276.86 325.39 279.8 329.89 283.37C331.47 284.63 331.43 286.36 332.35 287.93C332.87 288.83 333.98 289.31 334.63 290.11C336.1 291.93 336.94 294.14 338.23 296.04C339.12 297.34 343.08 301.87 344.33 302.94C345.67 304.09 347.5 304.72 348.63 306.11C354.96 313.92 359.49 323.05 366.06 330.67C367.58 332.43 369.87 333.18 371.4 334.86C372.54 336.11 372.56 337.57 373.35 338.93C374.78 341.39 378.27 344.38 380.26 346.5C382.57 348.96 385.71 350.38 388.14 352.6C391.83 355.96 394.86 360.32 398.5 363.74C402.58 367.58 407.65 371.79 411.4 375.86C412.78 377.35 413.51 379.31 415.05 380.69C418.04 383.35 422.15 386 424.63 389.11C425.4 390.08 425.67 391.38 426.45 392.31C429.48 395.87 434.32 397.48 437.4 400.86C438.54 402.11 438.56 403.57 439.35 404.93C439.92 405.92 441.15 406.46 441.83 407.39C442.68 408.56 442.72 409.74 443.27 411.01C443.73 412.06 450.89 421.32 452.06 422.67C454.32 425.3 457.01 428.4 459.5 430.74C461.23 432.37 463.78 433.1 465.4 434.86C467.01 436.61 469.19 438.3 470.63 440.11C471.42 441.11 471.7 442.78 472.71 443.53C474.24 444.68 476.67 445.2 478.4 446.34C479.92 447.35 480.81 449.1 482.3 449.96C484.11 451.01 486.22 451.04 487.89 452.37C490.27 454.26 492.85 459.36 494.35 461.93C495.26 463.49 497.07 464.12 497.74 465.97C499.65 471.23 502.37 481.52 500.72 486.99C500.15 488.91 498.26 489.5 497.35 491.07C495.79 493.74 493.93 497.31 493.12 500.33C491.98 504.62 492.43 519.01 492.99 523.75C493.32 526.55 494.96 529.29 495.72 532.01C496.44 534.55 496.21 537.11 497.12 539.67C498.79 544.31 501.91 547.11 500.8 552.65C499.17 560.85 490.63 559.73 488.94 567.25ZM489.95 549.75C489.82 547.34 488.04 546.2 487.26 544.03C485.96 540.45 485.83 536.91 484.88 533.33C484.21 530.84 482.97 528.47 482.28 525.99C480.99 521.41 481.93 506.72 482.08 501.25C482.21 496.14 485.39 491.17 487.4 486.66C487.98 485.36 489.61 484.5 489.98 483.23C490.63 480.99 488.86 472.57 487.84 470.37C487.31 469.2 480.43 461.12 479.32 460.45C477.97 459.63 476.43 459.68 475.11 458.63C473.58 457.41 473.13 455.42 471.31 454.46C468.86 453.17 466.38 452.47 464.11 450.63C461.89 448.82 459.87 444.76 457.74 442.5C456.22 440.88 453.84 440.03 452.11 438.63C450.72 437.5 450.09 435.67 448.94 434.33C447.26 432.38 444.99 430.89 443.37 428.89C440.23 425.01 436.88 420.77 434.17 416.61C432.27 413.68 430.86 410.42 428.55 407.69C425.67 404.31 420.62 402.46 417.6 399.14C415.45 396.78 413.98 393.88 411.74 391.5C410.03 389.68 407.7 388.18 405.86 386.4C400.76 381.46 396.09 376.21 390.86 371.4C389.28 369.95 388.57 367.76 386.95 366.31C384.13 363.81 381 361.92 378.11 359.63C377.06 358.79 376.64 357.46 375.74 356.5C372.13 352.66 367.71 349.1 364.37 344.89C363.6 343.92 363.33 342.62 362.55 341.69C359.31 337.88 355.23 334.64 352.17 330.61C348.12 325.27 345.33 318.39 340.74 313.5C339.85 312.55 338.52 312.09 337.6 311.14C335.82 309.3 334.32 306.97 332.5 305.26C331.54 304.36 330.21 303.94 329.37 302.89C328.07 301.25 327.92 299.2 326.77 297.47C324.87 294.6 320.04 289.65 317.5 287.26C315.66 285.53 309.78 281.18 307.63 280.16C306.59 279.67 305.41 279.93 304.36 279.41C302.82 278.64 302.11 276.84 300.63 276.16C297.73 274.82 293.97 273.7 291.39 271.83C288.32 269.59 285.78 266.38 282.53 264.23C280.42 262.83 278.05 262.29 275.88 260.85C274.42 259.87 273.15 257.86 271.63 257.16C270.39 256.59 269.25 256.53 268.11 255.63C266.38 254.25 265.88 251.48 263.93 250.35C255.89 245.66 247.34 238.41 241.37 230.89C240.42 229.69 240.38 228.31 239.65 227.07C239.08 226.08 237.85 225.54 237.17 224.61C235.3 222.03 234.18 218.27 232.84 215.37C232.36 214.31 231.08 213.78 230.37 212.89C229.49 211.77 229.48 210.55 228.86 209.37C226.09 204.17 220.87 199.88 218.4 194.34C217.53 192.39 215.89 190.03 215.28 187.99C214.83 186.5 215.28 184.83 214.88 183.33C214.19 180.75 212.72 178.28 212.2 175.65C210.7 168.14 212.08 155.76 212.08 147.75C212.08 136.38 211.71 124.89 213.01 113.75C214.09 104.6 212.39 95.39 214.2 86.35C214.75 83.58 216.45 81 216.96 78.24C218.42 70.37 217.06 58.08 217.06 49.75C217.06 45.16 218.2 38.2 214.74 34.5C212.15 31.73 208.35 30.9 204.97 29.75C193.44 25.8 183.97 25.94 171.75 25.94C161.35 25.94 150.07 27.18 139.77 25.85C135.82 25.34 131.7 24.45 127.75 23.99C123.79 23.52 119.72 24.36 115.77 23.85C113.86 23.6 112.11 22.38 110.24 22.04C107.33 21.5 104.2 22.11 101.25 21.88C99.98 21.78 99 21.13 97.75 20.99C91.58 20.26 84.96 20.94 78.75 20.94C69.38 20.94 60.37 21.67 51.23 22.85C49.17 23.11 46.77 22.46 44.77 23.03C44.13 23.21 39.15 26.24 38.39 26.75C36.73 31.05 38.3 36.48 38.85 40.77C39.12 42.9 38.64 45.12 39.04 47.24C39.36 48.97 40.46 50.61 40.8 52.35C41.57 56.18 41.58 74.85 40.8 78.65C40.46 80.31 38.92 81.48 38.27 82.99C37.67 84.37 37.62 85.64 36.63 86.89C35.1 88.81 32.19 90.07 30.17 91.44C27.84 93.02 22.83 99.19 22.16 101.75C23.34 103.69 24.11 105.7 25.14 107.63C26.08 109.4 28.39 110.56 29.63 112.11C30.93 113.75 31.08 115.8 32.23 117.53C33.18 118.96 34.59 119.81 35.63 121.11C36.11 121.72 41.13 130.6 41.6 131.66C42.73 134.19 43.19 137.06 44.12 139.67C44.69 141.24 46.24 142.4 46.72 144.01C47.36 146.13 46.73 148.57 46.99 150.75C47.56 155.68 48.22 160.85 48.85 165.77C49.43 170.24 48.57 174.35 50.12 178.67C51.32 182 57.22 190.28 59.35 193.93C60.59 196.06 63.37 197.39 64.83 199.39C65.64 200.52 65.68 201.79 66.35 202.93C67.8 205.42 70.81 206.99 71.72 210.01C72.13 211.36 71.78 212.86 72.04 214.24C72.36 215.97 73.46 217.61 73.8 219.35C74.41 222.4 73.62 225.67 73.99 228.75C74.36 231.89 76.01 236.1 77.27 239.01C78 240.69 79.56 241.3 80.89 242.37C82.49 243.67 82.96 245.85 84.99 246.73C89.4 248.64 101.79 253.53 104.63 257.11C108 261.37 105 272.76 107.12 278.67C108.38 282.17 111.08 285.25 112.6 288.66C113.35 290.35 113.53 292.31 114.27 294.01C115.26 296.29 117.26 298.15 118.42 300.35C120.34 304.01 122.42 307.85 124.16 311.63C124.68 312.77 126.09 313.38 126.83 314.39C127.85 315.8 133.1 326.18 133.74 327.97C137.32 337.81 131.62 342.5 133.04 350.24C133.81 354.47 134.64 360.56 136.26 364.52C137.45 367.42 139.68 370.03 140.74 372.97C141.64 375.42 141.26 378.31 142.16 380.63C142.83 382.33 145.06 383.08 145.74 384.97C146.7 387.59 147.16 390.45 148.27 393.01C149.27 395.33 151.27 397.49 152.66 399.6C153.81 401.33 154.35 403.22 155.35 404.93C155.87 405.83 156.98 406.31 157.63 407.11C161.17 411.49 164.09 413.87 168.14 417.6C170.46 419.73 172.27 422.49 174.69 424.55C175.62 425.33 176.92 425.6 177.89 426.37C183.15 430.55 189.2 436.76 192.83 442.39C195.69 446.82 195.13 452.35 196.04 457.24C196.71 460.89 198.72 464.42 199.72 468.01C200.05 469.16 199.8 470.39 200.26 471.52C201.17 473.73 203.27 474.4 204.63 476.11C205.65 477.4 205.58 479.5 206.7 480.55C209.16 482.83 213.96 483.43 216.99 484.28C227.58 487.24 239.2 485.92 250.25 486.06C258.91 486.17 274.91 493.72 281.89 499.37C285.6 502.38 290.14 509.56 291.74 513.97C293.29 518.23 294.27 522.69 298.99 524.73C311.23 530.04 324.27 534.45 336.99 538.28C338.49 538.73 339.58 540.12 340.99 540.73C344.8 542.38 351.05 543.78 354.14 546.6C356.15 548.43 361.5 555.19 362.6 557.66C363.3 559.22 363.44 561.07 364.16 562.63C364.64 563.69 365.92 564.22 366.63 565.11C368.13 567.01 369.59 570.39 370.6 572.66C371.95 575.68 371.94 581.26 375.48 582.74C379.39 584.37 395.12 583.06 400.25 583.06C407.67 583.06 415.01 583.3 422.24 581.96C425 581.45 427.58 579.75 430.35 579.2C432.44 578.78 434.64 579.26 436.75 579.01C440.55 578.57 444.59 577.95 448.35 577.2C454.28 576.01 460.75 577.72 466.75 577.01C469.47 576.69 476.74 574.67 479.47 573.75C478.85 571.44 477.21 569.24 477.14 566.75C477.07 564.44 478.55 563.23 479.54 561.31C480.27 559.9 480.33 558.43 481.37 557.11C483.64 554.25 487.64 552.7 489.95 549.75Z" fill="#020202" fill-rule="evenodd" stroke="#020202" stroke-width="0.25" stroke-linejoin="round"/>
</svg>